<svg xmlns="http://www.w3.org/2000/svg" viewBox="0 0 1792 1792"><path d="M896 786h725c8 44.7 12 87.3 12 128 0 144.7-30.3 273.8-91 387.5S1394.8 1504 1282.5 1568s-241.2 96-386.5 96c-104.7 0-204.3-20.2-299-60.5s-176.3-94.8-245-163.5-123.2-150.3-163.5-245S128 1000.7 128 896s20.2-204.3 60.5-299S283.3 420.7 352 352s150.3-123.2 245-163.5S791.3 128 896 128c200 0 371.7 67 515 201l-209 201c-82-79.3-184-119-306-119-86 0-165.5 21.7-238.5 65S526.7 578.2 484 652.5 420 808 420 896s21.3 169.2 64 243.5 100.5 133.2 173.5 176.5 152.5 65 238.5 65c58 0 111.3-8 160-24s88.7-36 120-60 58.7-51.3 82-82 40.5-59.7 51.5-87 18.5-53.3 22.5-78H896V786z" fill="#fff"/></svg>