<?xml version="1.0" encoding="utf-8"?>
<!-- Generator: Adobe Illustrator 22.0.0, SVG Export Plug-In . SVG Version: 6.00 Build 0)  -->
<svg version="1.1" id="Layer_1" xmlns="http://www.w3.org/2000/svg" xmlns:xlink="http://www.w3.org/1999/xlink" x="0px" y="0px"
	 viewBox="0 0 36 36" style="enable-background:new 0 0 36 36;" xml:space="preserve">
<style type="text/css">
	.st0{fill:#FF3B30;}
</style>
<title>Artboard 1</title>
<path class="st0" d="M21.2,10.5c-0.1,0-0.6-0.3-0.7-0.3c0.1-0.1,0.2-0.2,0.3-0.3c0.2-0.3,0.3-0.6,0.4-1C21.4,9,21.7,9,22,9
	c-0.3-0.3-0.6-0.7-0.8-1.1h0.6c-0.5-0.3-0.8-0.8-1.1-1.3c-0.1-0.2-0.3-0.4-0.5-0.6c-0.4-0.1-0.8-0.1-1.2,0.1c-0.3-0.2-0.7-0.2-1,0
	c-0.3,0.2-0.5,0.4-0.7,0.7C17.2,7,17,7.2,16.8,7.5c-0.2,0.2-0.5,0.4-0.8,0.5c0.2,0.2,0.4,0.3,0.6,0.3c-0.1,0.2-0.3,0.4-0.5,0.6
	C16.2,8.9,16.4,9,16.6,9c0,0.3,0.1,0.7,0.3,0.9c-0.3,0.1-0.6,0.3-0.8,0.5c-0.1-0.1-0.2-0.1-0.3-0.2C15.5,10,15.3,9.8,15,9.6
	c0-0.3-0.1-0.5-0.2-0.7c-0.1-0.2-0.3-0.4-0.5-0.6c-0.3-0.2-0.7-0.2-1.1-0.2c0.2-0.6,0.3-1.1,0.2-1.7c0-0.3,0.3-0.4,0.5-0.5
	c0,0.2,0,0.4,0,0.6c0,0.1,0,0.1,0,0.2c0,0.1,0,0.1,0.1,0.2C14.1,7,14.2,7,14.3,7c-0.1,0.1,0,0.2,0,0.2c0.1,0.1,0.1,0.1,0.2,0.1
	c0.1,0,0.2,0,0.3,0c0.3,0,0.7-0.1,1-0.2c0.1,0,0.2-0.1,0.2-0.2c0.1-0.1,0.1-0.2,0.1-0.3C16,6.5,16,6.2,15.9,5.9
	c-0.2-0.3-0.3-0.5-0.5-0.7C15.2,5,15.2,4.9,15,4.8c-0.1-0.1-0.2-0.2-0.3-0.2c-0.1,0-0.2,0-0.4,0c-0.7,0.2-1.4,0.5-2.1,0.9
	c-0.6,0.4-1.2,0.9-1.6,1.5c-0.4,0.6-0.6,1.3-0.5,2.1c0,0.4,0.4,0.6,0.8,0.7c0.1,0.5,0.2,0.9,0.4,1.3c0.2,0.4,0.6,0.8,1,1
	c0.3,0.1,0.3,0.5,0.4,0.7c0.3,0.4,0.7,0.7,1.1,0.9c-0.1,1.1,0.3,2.2,1.1,3c0.1,1.1,0.1,2.3,0.1,3.5c-1,0.2-2,0.6-2.9,1.2
	c-0.9,0.6-1.6,1.5-1.8,2.5c-0.5,0.1-0.8,0.4-1.1,0.8c-0.1,0.3-0.3,0.6-0.4,0.9c-0.4,0.3-0.8,0.7-1.1,1.1c-0.3,0.5-0.4,1-0.7,1.5
	c-0.1,0.3-0.3,0.7-0.6,1c-2.5-2-3.4-0.4-3.4-0.4l3.8,2.5c0.2-0.2,0.3-0.5,0.3-0.9c0.4-0.5,0.9-0.9,1.4-1.3c0.5,0,1-0.2,1.5-0.5
	c0.4-0.4,0.7-0.8,0.9-1.3c0.2-0.4,0.5-1,1-1.1c1.4-0.2,2.7-0.7,3.9-1.3h0.3c0.7-0.4,1.5-0.5,2.3-0.4c1.4,0.3,2.4,1.5,3.8,1.9
	c0.3,0.1,0.7,0.1,1,0.2l1.1,0.1c0.3,0,0.6,0.5,0.7,0.8s0.1,0.5,0.1,0.7c0.1,0.4,0.4,0.7,0.7,0.9c0.3,0.2,0.7,0.3,1.1,0.4
	c0.3,0.1,0.7,0.1,1,0.1c0.3,0.3,0.7,0.5,0.7,0.9c-0.1,0.3,0,0.7,0.2,1c0,0,3.3-2.2,3.8-2.3c0,0-0.6-1.3-3.1,0.3
	c-0.5-0.6-1-1.3-1.4-2c-0.2-0.5-0.5-0.9-0.9-1.3L26.9,26c-0.1-0.4-0.1-0.7-0.4-0.9c-0.3-0.2-0.6-0.3-1-0.3c-0.5-1-1-1.9-1.7-2.7
	c-0.7-0.9-1.5-1.5-2.5-2c0.3-1.1,0.4-2.2,0.3-3.2c0.5-0.5,0.8-1.1,0.9-1.8c0.1,0.1,0.2,0.2,0.3,0.3c0.2,0.1,0.4,0.2,0.5,0.2
	c0.2,0,0.5,0,0.6,0.1s0.1,0.3,0.1,0.5c0.1,0.2,0.2,0.4,0.4,0.5c0.3,0.2,0.6,0.3,1,0.3c0,0.3,0.1,0.5,0.1,0.8c-0.2,0-0.3-0.1-0.5-0.1
	c-0.1,0-0.3,0.1-0.3,0.2c0,0,0,0,0,0.1l0,0c-0.1,0-0.2,0.1-0.2,0.2c-0.1,0.1-0.1,0.3,0,0.4c0.1,0.1,0.1,0.3,0.1,0.4
	c0.3,0.3,0.5,0.7,0.8,1c0.1,0,0.2-0.1,0.3-0.1c0.2-0.2,0.4-0.5,0.5-0.6c0.6-0.6,1-1.4,1-2.2c0-1.2-0.5-2.4-1.4-3.4
	c-0.1-0.6-0.4-1.1-0.8-1.4c-0.5-0.3-1-0.5-1.6-0.5c-0.1-0.5-0.4-0.8-0.9-1C22.1,10.6,21.6,10.5,21.2,10.5"/>
</svg>
