<?xml version="1.0" encoding="utf-8"?>
<!-- Generator: Adobe Illustrator 22.0.0, SVG Export Plug-In . SVG Version: 6.00 Build 0)  -->
<svg version="1.1" id="Layer_1" xmlns="http://www.w3.org/2000/svg" xmlns:xlink="http://www.w3.org/1999/xlink" x="0px" y="0px"
	 viewBox="0 0 469.6 35.3" style="enable-background:new 0 0 469.6 35.3;" xml:space="preserve">
<style type="text/css">
	.st0{fill:#FFFFFF;}
	.st1{fill:#EE4223;}
</style>
<g>
	<path class="st0" d="M0.7,35C0.2,35,0,34.8,0,34.3V1.1c0-0.5,0.2-0.7,0.7-0.7h18c0.2,0,0.3,0,0.5,0.2c0.2,0.2,0.2,0.3,0.2,0.5v5.8
		c0,0.2,0,0.3-0.2,0.5c0,0.2-0.2,0.2-0.3,0.2H7.4v6.3h8.7c0.5,0,0.7,0.2,0.7,0.7v5.8c0,0.2,0,0.3-0.2,0.5c-0.2,0.2-0.2,0.2-0.3,0.2
		H7.4v13c0,0.5-0.2,0.7-0.7,0.7h-6V35z"/>
	<path class="st0" d="M24.1,35c-0.2,0-0.3,0-0.5-0.2c-0.2-0.2-0.2-0.3-0.2-0.5V0.9c0-0.2,0-0.3,0.2-0.3c0.2-0.2,0.3-0.2,0.5-0.2h5.8
		c0.2,0,0.3,0,0.5,0.2c0.2,0,0.3,0.2,0.3,0.3v26.7h13.3c0.2,0,0.3,0,0.5,0.2c0.2,0.2,0.2,0.3,0.2,0.5v5.8c0,0.2,0,0.3-0.2,0.5
		c-0.2,0.2-0.3,0.2-0.5,0.2h-20V35z"/>
	<path class="st0" d="M49.3,35c-0.5,0-0.7-0.2-0.7-0.7V1.1c0-0.5,0.2-0.7,0.7-0.7h18c0.2,0,0.3,0,0.5,0.2c0.2,0.2,0.2,0.3,0.2,0.5
		v5.8c0,0.2,0,0.3-0.2,0.5c-0.2,0.2-0.3,0.2-0.5,0.2H55.8v6.3h8.7c0.5,0,0.7,0.2,0.7,0.7v5.8c0,0.5-0.2,0.7-0.7,0.7h-8.7v6.3h11.5
		c0.2,0,0.3,0,0.5,0.2c0.2,0.2,0.2,0.3,0.2,0.5V34c0,0.2,0,0.3-0.2,0.5c-0.2,0.2-0.3,0.2-0.5,0.2h-18V35z"/>
	<path class="st0" d="M89.6,35c-0.2,0-0.3,0-0.5-0.2c-0.2-0.2-0.3-0.3-0.3-0.5l-5-9.6L79,34.3c-0.2,0.2-0.2,0.3-0.3,0.5
		C78.5,35,78.3,35,78.2,35h-6.3c-0.2,0-0.3,0-0.5-0.2c-0.2-0.2-0.2-0.3,0-0.7l8.6-17.6L72.4,1.3c-0.2-0.3-0.2-0.5,0-0.7
		s0.3-0.2,0.5-0.2H79c0.2,0,0.3,0,0.5,0.2s0.2,0.3,0.3,0.5l3.9,7.4l4.3-7.4c0.2-0.2,0.2-0.3,0.3-0.5c0.2-0.2,0.2-0.2,0.5-0.2h6.2
		c0.2,0,0.3,0,0.5,0.2s0.2,0.3,0,0.7l-7.5,15.2l8.6,17.6c0.2,0.3,0.2,0.5,0,0.7c-0.2,0.2-0.3,0.3-0.5,0.3h-6.5V35z"/>
	<path class="st0" d="M101.1,35c-0.5,0-0.7-0.2-0.7-0.7V1.1c0-0.5,0.2-0.7,0.7-0.7h5.8c0.5,0,0.7,0.2,0.7,0.7v33.2
		c0,0.5-0.2,0.7-0.7,0.7L101.1,35z"/>
	<path class="st0" d="M126.6,35c-0.2,0-0.3,0-0.5-0.2c-0.2-0.2-0.3-0.3-0.3-0.5l-6-16.6v16.6c0,0.2,0,0.3-0.2,0.5s-0.3,0.2-0.5,0.2
		h-5.8c-0.2,0-0.3,0-0.5-0.2c-0.2-0.2-0.2-0.3-0.2-0.5V1.1c0-0.5,0.2-0.7,0.7-0.7h7.2c0.3,0,0.5,0.2,0.7,0.7l6.5,19l0.2,0.5V1.1
		c0-0.2,0-0.3,0.2-0.5c0.3-0.2,0.3-0.2,0.5-0.2h5.8c0.7,0,0.9,0.2,0.9,0.7v33.2c0,0.2,0,0.3-0.2,0.5c-0.2,0.2-0.3,0.2-0.5,0.2
		L126.6,35z"/>
	<path class="st0" d="M158.4,34.5c-0.3,0.3-0.5,0.5-0.9,0.5s-0.3,0-0.5,0h-12.8c-0.5,0-0.9-0.2-1.4-0.5l-2.6-2.7
		c-0.3-0.3-0.5-0.5-0.5-0.7c0-0.2,0-0.3,0-0.5V5c0-0.3,0-0.5,0.2-0.7c0.2-0.2,0.2-0.3,0.3-0.7l2.7-2.7c0.2-0.2,0.3-0.3,0.5-0.3
		c0.2-0.2,0.5-0.2,0.9-0.2h12.8c0.2,0,0.3,0,0.5,0c0.2,0,0.3,0.2,0.7,0.5l2.7,2.7c0.3,0.3,0.3,0.5,0.5,0.7c0,0.2,0,0.3,0,0.5v5.3
		c0,0.2,0,0.3-0.2,0.5c-0.2,0.2-0.3,0.2-0.5,0.2h-5.8c-0.2,0-0.3,0-0.5-0.2c-0.2-0.2-0.2-0.3-0.2-0.5V9c0-0.2,0-0.2-0.2-0.3
		l-0.9-0.9c0-0.2-0.2-0.2-0.3-0.2h-4.8c-0.2,0-0.2,0-0.3,0.2l-0.9,0.9c0,0.2-0.2,0.3-0.2,0.5v17.4c0,0.2,0,0.3,0.2,0.3l0.7,0.7h5.8
		l0.7-0.7c0.2-0.2,0.2-0.2,0.2-0.3v-4.3h-3.3c-0.2,0-0.3,0-0.5-0.2c-0.2-0.2-0.2-0.3-0.2-0.5v-6c0-0.5,0.2-0.7,0.7-0.7h9.8
		c0.2,0,0.3,0,0.5,0.2c0.2,0.2,0.2,0.3,0.2,0.5v14.9c0,0.2,0,0.3-0.2,0.5s-0.2,0.3-0.3,0.5L158.4,34.5z"/>
	<path class="st1" d="M184.2,34.5c-0.2,0.2-0.5,0.3-0.5,0.3c-0.2,0-0.3,0-0.5,0h-12.7c-0.3,0-0.5,0-0.7-0.2
		c-0.2-0.2-0.3-0.2-0.5-0.3l-2.7-2.7c-0.3-0.3-0.3-0.5-0.5-0.7c0-0.2,0-0.3,0-0.5v-5.1c0-0.2,0-0.3,0.2-0.5c0.2-0.2,0.3-0.2,0.5-0.2
		h5.8c0.5,0,0.7,0.2,0.7,0.7v2.4h6.2l0.7-0.7c0.2,0,0.2-0.2,0.2-0.3v-3.9v-0.2c0,0,0-0.2-0.2-0.2l-0.9-0.7c-0.2-0.2-0.2-0.2-0.3-0.2
		h-5.1v-7.4h5.6l0.7-0.7c0.2-0.2,0.2-0.2,0.2-0.3V9c0-0.2,0-0.3-0.2-0.3l-0.9-0.9c-0.2-0.2-0.2-0.2-0.3-0.2h-5.8v2.6
		c0,0.5-0.2,0.7-0.7,0.7h-5.8c-0.2,0-0.3,0-0.5-0.2c-0.2-0.2-0.2-0.3-0.2-0.5V5c0-0.2,0-0.3,0-0.5c0-0.2,0.2-0.5,0.5-0.9l2.7-2.7
		c0.3-0.3,0.7-0.5,1.4-0.5H183c0.2,0,0.3,0,0.7,0c0.2,0,0.5,0.2,0.7,0.3l2.7,2.7c0.3,0.3,0.3,0.5,0.5,0.7c0,0.2,0,0.3,0,0.5v9.9
		c0,0.2,0,0.3,0,0.5s-0.2,0.5-0.5,0.7l-1.9,2.1l1.9,2.1c0.2,0.2,0.3,0.3,0.3,0.5c0.2,0.2,0.2,0.3,0.2,0.5v9.4c0,0.2,0,0.3,0,0.5
		c0,0.2-0.2,0.5-0.5,0.7L184.2,34.5z"/>
	<path class="st1" d="M210.2,34.5c-0.3,0.3-0.7,0.5-1.2,0.5h-12.8c-0.2,0-0.3,0-0.5-0.2c-0.2-0.2-0.3-0.2-0.3-0.3l-2.7-2.7
		c-0.3-0.3-0.5-0.9-0.5-1.4V5c0-0.5,0.2-1,0.5-1.4l2.7-2.7c0.2-0.2,0.3-0.3,0.5-0.3c0.2,0,0.5-0.2,0.7-0.2H209c0.3,0,0.5,0,0.7,0.2
		c0.2,0,0.3,0.2,0.5,0.3l2.7,2.7c0.3,0.3,0.3,0.5,0.5,0.9c0,0.2,0,0.3,0,0.5v5.1c0,0.5-0.2,0.7-0.7,0.7H207c-0.5,0-0.7-0.2-0.7-0.7
		V7.6h-5.6c-0.2,0-0.3,0-0.5,0.2l-0.9,0.7c-0.2,0.2-0.2,0.3-0.2,0.5v3.9c0,0.2,0,0.2,0.2,0.3l0.7,0.7h8.9c0.2,0,0.5,0,0.5,0
		s0.3,0.2,0.7,0.5l2.7,2.7c0.3,0.3,0.3,0.5,0.5,0.9c0,0.2,0,0.3,0,0.5v11.8c0,0.2,0,0.3,0,0.5c0,0.2-0.2,0.5-0.5,0.7L210.2,34.5z
		 M206.1,26.9c0.2-0.2,0.2-0.2,0.2-0.3v-4.1c0-0.2,0-0.2-0.2-0.3l-1-1h-4.6c-0.2,0-0.2,0-0.3,0.2l-0.9,0.9c-0.2,0.2-0.2,0.2-0.2,0.3
		v3.9c0,0.2,0,0.2,0.2,0.3l0.7,0.5h5.5L206.1,26.9z"/>
	<path class="st1" d="M236.8,34.5c-0.3,0.3-0.7,0.5-1.4,0.5h-12.7c-0.2,0-0.3,0-0.7,0c-0.2,0-0.5-0.2-0.7-0.3l-2.7-2.7
		c-0.2-0.2-0.3-0.5-0.3-0.7s0-0.3,0-0.7v-5.3c0-0.5,0.2-0.7,0.7-0.7h5.8c0.5,0,0.7,0.2,0.7,0.7v2.4h6.2c0,0,0.2,0,0.3-0.2l0.9-0.9
		c0.2,0,0.2-0.2,0.2-0.3v-4.8c0-0.2,0-0.3-0.2-0.5l-0.7-0.7h-9.2c-0.5,0-1-0.2-1.4-0.5l-2.7-2.7c-0.2-0.2-0.3-0.5-0.3-0.7
		s0-0.3,0-0.7V1.1c0-0.2,0-0.3,0.2-0.5s0.3-0.2,0.5-0.2h20.5c0.2,0,0.3,0,0.5,0.2s0.2,0.3,0.2,0.5v5.8c0,0.2,0,0.3-0.2,0.5
		c-0.2,0.2-0.3,0.2-0.5,0.2h-14v3.9c0,0.2,0,0.3,0.2,0.5l0.7,0.7c0.2,0.2,0.3,0.2,0.5,0.2h8.7c0.5,0,0.9,0.2,1.4,0.5l2.7,2.7
		c0.3,0.3,0.3,0.5,0.5,0.7c0,0.2,0,0.3,0,0.7v12.8c0,0.5-0.2,0.9-0.5,1.4L236.8,34.5z"/>
	<path class="st0" d="M277.1,34.9c-0.4,0-0.6-0.2-0.7-0.7l-3.5-12.5l-0.3-2.5l-0.3,2.5l-3.9,12.5c-0.2,0.5-0.4,0.7-0.7,0.7h-6.2
		c-0.2,0-0.3-0.1-0.4-0.2c-0.1-0.2-0.2-0.3-0.2-0.5l-2.6-33.3c0-0.2,0-0.3,0.2-0.5s0.3-0.2,0.5-0.2h5.9c0.2,0,0.4,0.1,0.5,0.2
		c0.1,0.1,0.2,0.3,0.2,0.5l1.2,17l2.8-7.9c0.1-0.2,0.2-0.3,0.3-0.5c0.2-0.2,0.3-0.2,0.5-0.2h4c0.5,0,0.8,0.2,0.9,0.7l2.8,7.9l1.2-17
		c0-0.2,0.1-0.3,0.2-0.5c0.1-0.1,0.3-0.2,0.5-0.2h5.9c0.2,0,0.3,0.1,0.5,0.2c0.2,0.1,0.2,0.3,0.2,0.5L284,34.2
		c0,0.2-0.1,0.3-0.2,0.5c-0.1,0.1-0.3,0.2-0.6,0.2H277.1z"/>
	<path class="st0" d="M309.2,34.3c-0.4,0.4-0.7,0.5-1.1,0.5h-13c-0.3,0-0.5,0-0.7-0.1c-0.2-0.1-0.4-0.2-0.6-0.4l-2.8-2.8
		c-0.4-0.4-0.5-0.8-0.5-1.3V4.8c0-0.2,0-0.4,0.1-0.7c0.1-0.2,0.2-0.5,0.4-0.6l2.8-2.8c0.2-0.2,0.5-0.4,0.7-0.4
		c0.2-0.1,0.4-0.1,0.6-0.1h12.8c0.3,0,0.5,0,0.6,0.1c0.1,0,0.4,0.2,0.7,0.5l2.8,2.8c0.1,0.1,0.2,0.3,0.3,0.5
		c0.1,0.2,0.1,0.5,0.1,0.8v25.5c0,0.2,0,0.4-0.1,0.6c-0.1,0.2-0.2,0.5-0.4,0.7L309.2,34.3z M305,26.9c0.1-0.1,0.1-0.2,0.1-0.3V8.8
		c0-0.2,0-0.3-0.1-0.4l-0.8-0.8c-0.1-0.1-0.2-0.1-0.3-0.1h-4.8c-0.1,0-0.2,0-0.3,0.1l-0.8,0.8c-0.1,0.1-0.1,0.2-0.1,0.4v17.7
		c0,0.1,0,0.2,0.1,0.3l0.7,0.7h5.8L305,26.9z"/>
	<path class="st0" d="M332.3,34.9c-0.2,0-0.4-0.1-0.5-0.2c-0.2-0.1-0.3-0.3-0.3-0.5L326.6,22h-2.3v12.1c0,0.2-0.1,0.3-0.2,0.5
		c-0.1,0.1-0.3,0.2-0.5,0.2h-5.9c-0.2,0-0.3-0.1-0.5-0.2c-0.1-0.1-0.2-0.3-0.2-0.5V0.8c0-0.2,0.1-0.4,0.2-0.5
		c0.1-0.1,0.3-0.2,0.5-0.2h15.8c0.5,0,1,0.2,1.3,0.5l2.8,2.8c0.3,0.3,0.5,0.6,0.5,0.8c0,0.2,0,0.4,0,0.6v12.5c0,0.3,0,0.6-0.1,0.7
		c-0.1,0.2-0.2,0.3-0.4,0.5l-3,2.9l5.1,12.5c0.1,0.2,0.1,0.3,0,0.5c-0.1,0.1-0.2,0.2-0.5,0.2H332.3z M330.6,13.8
		c0.1-0.1,0.1-0.2,0.1-0.4V8.9c0-0.2,0-0.4-0.1-0.5l-0.7-0.7c-0.1-0.1-0.2-0.2-0.3-0.2c-0.1,0-0.2,0-0.3,0h-5v7.3h5.2
		c0.1,0,0.2,0,0.3-0.1L330.6,13.8z"/>
	<path class="st0" d="M360.2,34.9c-0.2,0-0.4-0.1-0.5-0.2c-0.2-0.1-0.3-0.3-0.3-0.5l-6.1-13.8l-2.6,3.6v10.2c0,0.5-0.2,0.7-0.7,0.7
		H344c-0.5,0-0.7-0.2-0.7-0.7V0.8c0-0.2,0.1-0.3,0.2-0.5c0.1-0.1,0.3-0.2,0.5-0.2h5.9c0.2,0,0.4,0.1,0.5,0.2
		c0.1,0.1,0.2,0.3,0.2,0.5v10.8L358,0.8c0.1-0.2,0.3-0.3,0.4-0.5c0.1-0.1,0.3-0.2,0.5-0.2h7.5c0.3,0,0.5,0.1,0.7,0.3
		c0.2,0.2,0.2,0.4,0,0.6l-9.2,12.7l9.6,20.1c0.1,0.3,0.1,0.5-0.1,0.6c-0.2,0.2-0.4,0.2-0.6,0.2H360.2z"/>
	<path class="st0" d="M388.9,34.3c-0.4,0.4-0.7,0.5-1.1,0.5h-13c-0.3,0-0.5,0-0.7-0.1c-0.2-0.1-0.4-0.2-0.6-0.4l-2.8-2.8
		c-0.4-0.4-0.5-0.8-0.5-1.3V4.8c0-0.2,0-0.4,0.1-0.7c0.1-0.2,0.2-0.5,0.4-0.6l2.8-2.8c0.2-0.2,0.5-0.4,0.7-0.4
		c0.2-0.1,0.4-0.1,0.6-0.1h12.8c0.3,0,0.5,0,0.6,0.1c0.1,0,0.4,0.2,0.7,0.5l2.8,2.8c0.1,0.1,0.2,0.3,0.3,0.5
		c0.1,0.2,0.1,0.5,0.1,0.8v25.5c0,0.2,0,0.4-0.1,0.6c-0.1,0.2-0.2,0.5-0.4,0.7L388.9,34.3z M384.8,26.9c0.1-0.1,0.1-0.2,0.1-0.3V8.8
		c0-0.2,0-0.3-0.1-0.4L384,7.6c-0.1-0.1-0.2-0.1-0.3-0.1h-4.8c-0.1,0-0.2,0-0.3,0.1l-0.8,0.8c-0.1,0.1-0.1,0.2-0.1,0.4v17.7
		c0,0.1,0,0.2,0.1,0.3l0.7,0.7h5.8L384.8,26.9z"/>
	<path class="st0" d="M415.4,34.3c-0.2,0.2-0.4,0.3-0.6,0.4c-0.2,0.1-0.4,0.1-0.7,0.1h-12.9c-0.3,0-0.5,0-0.7-0.1
		c-0.2-0.1-0.4-0.2-0.6-0.4l-2.8-2.8c-0.3-0.3-0.4-0.5-0.5-0.7c0-0.2-0.1-0.4-0.1-0.6V0.8c0-0.2,0.1-0.4,0.2-0.5
		c0.1-0.1,0.3-0.2,0.5-0.2h5.9c0.5,0,0.7,0.2,0.7,0.7v25.7c0,0.1,0,0.2,0,0.2c0,0,0.1,0.1,0.1,0.1l0.7,0.7h5.8l0.7-0.7
		c0.1-0.1,0.2-0.3,0.2-0.4V0.8c0-0.5,0.2-0.7,0.7-0.7h5.9c0.5,0,0.7,0.2,0.7,0.7v29.4c0,0.5-0.2,1-0.5,1.3L415.4,34.3z"/>
	<path class="st0" d="M430.1,34.9c-0.2,0-0.3-0.1-0.5-0.2c-0.1-0.1-0.2-0.3-0.2-0.4V7.5h-6.3c-0.2,0-0.4-0.1-0.5-0.2
		c-0.1-0.1-0.2-0.3-0.2-0.5V0.9c0-0.2,0.1-0.4,0.2-0.5c0.1-0.1,0.3-0.2,0.5-0.2H443c0.2,0,0.4,0.1,0.5,0.2c0.1,0.1,0.2,0.3,0.2,0.5
		v5.9c0,0.2-0.1,0.4-0.2,0.5c-0.1,0.1-0.3,0.2-0.5,0.2h-6.3v26.8c0,0.2-0.1,0.3-0.2,0.4c-0.1,0.1-0.3,0.2-0.5,0.2H430.1z"/>
	<path class="st0" d="M466,34.3c-0.2,0.2-0.4,0.3-0.6,0.4c-0.3,0.1-0.5,0.1-0.6,0.1h-12.9c-0.5,0-0.9-0.2-1.3-0.5l-2.8-2.8
		c-0.2-0.2-0.3-0.4-0.4-0.6c-0.1-0.3-0.1-0.5-0.1-0.7v-4.8c0-0.2,0.1-0.4,0.2-0.5c0.1-0.1,0.3-0.2,0.5-0.2h5.9
		c0.5,0,0.7,0.2,0.7,0.7v2.2h6.3c0.1,0,0.1,0,0.2-0.1l0.8-0.8c0.1-0.1,0.1-0.2,0.1-0.3v-3.8c0-0.2-0.1-0.4-0.2-0.5l-0.7-0.7
		c-0.1-0.1-0.2-0.1-0.2-0.1h-9c-0.5,0-0.9-0.2-1.3-0.5l-2.8-2.8c-0.2-0.2-0.3-0.3-0.4-0.5c-0.1-0.2-0.1-0.4-0.1-0.7V4.8
		c0-0.5,0.2-0.9,0.5-1.3l2.8-2.8c0.3-0.3,0.5-0.4,0.7-0.5c0.2,0,0.4-0.1,0.6-0.1h12.9c0.3,0,0.5,0,0.7,0.1c0.2,0.1,0.4,0.2,0.6,0.4
		l2.8,2.8c0.4,0.4,0.5,0.8,0.5,1.3V10c0,0.2-0.1,0.4-0.2,0.5c-0.1,0.1-0.3,0.2-0.5,0.2h-5.9c-0.5,0-0.7-0.2-0.7-0.7V7.5h-6.2
		c-0.1,0-0.2,0-0.3,0.1l-0.8,0.8c-0.1,0.1-0.2,0.3-0.2,0.4v4c0,0.1,0.1,0.2,0.2,0.3l0.7,0.7h9.3c0.4,0,0.6,0,0.7,0.1
		c0.1,0.1,0.3,0.2,0.5,0.4l2.8,2.8c0.3,0.3,0.4,0.5,0.5,0.7c0,0.2,0.1,0.4,0.1,0.6v11.8c0,0.2,0,0.4-0.1,0.6
		c-0.1,0.2-0.2,0.5-0.4,0.7L466,34.3z"/>
</g>
</svg>
