<svg id="Layer_1" xmlns="http://www.w3.org/2000/svg" viewBox="0 0 469.6 54.4"><style>.st0{fill:#b1b7b6}.st1{fill:#ee4223}</style><path class="st0" d="M.8 44.6c-.5 0-.7-.2-.7-.7V10.7c0-.5.2-.7.7-.7h18c.2 0 .3 0 .5.2s.2.3.2.5v5.8c0 .2 0 .3-.2.5 0 .2-.2.2-.3.2H7.5v6.3h8.7c.5 0 .7.2.7.7V30c0 .2 0 .3-.2.5s-.2.2-.3.2H7.5v13c0 .5-.2.7-.7.7h-6v.2zM24.2 44.6c-.2 0-.3 0-.5-.2s-.2-.3-.2-.5V10.5c0-.2 0-.3.2-.3.2-.2.3-.2.5-.2H30c.2 0 .3 0 .5.2.2 0 .3.2.3.3v26.7h13.3c.2 0 .3 0 .5.2s.2.3.2.5v5.8c0 .2 0 .3-.2.5s-.3.2-.5.2h-20l.1.2zM49.4 44.6c-.5 0-.7-.2-.7-.7V10.7c0-.5.2-.7.7-.7h18c.2 0 .3 0 .5.2s.2.3.2.5v5.8c0 .2 0 .3-.2.5s-.3.2-.5.2H55.9v6.3h8.7c.5 0 .7.2.7.7V30c0 .5-.2.7-.7.7h-8.7V37h11.5c.2 0 .3 0 .5.2s.2.3.2.5v5.9c0 .2 0 .3-.2.5s-.3.2-.5.2h-18v.3zM89.7 44.6c-.2 0-.3 0-.5-.2s-.3-.3-.3-.5l-5-9.6-4.8 9.6c-.2.2-.2.3-.3.5-.2.2-.4.2-.5.2H72c-.2 0-.3 0-.5-.2s-.2-.3 0-.7l8.6-17.6-7.6-15.2c-.2-.3-.2-.5 0-.7s.3-.2.5-.2h6.1c.2 0 .3 0 .5.2s.2.3.3.5l3.9 7.4 4.3-7.4c.2-.2.2-.3.3-.5.2-.2.2-.2.5-.2h6.2c.2 0 .3 0 .5.2s.2.3 0 .7l-7.5 15.2 8.6 17.6c.2.3.2.5 0 .7s-.3.3-.5.3l-6.5-.1c0 .1 0 0 0 0zM101.2 44.6c-.5 0-.7-.2-.7-.7V10.7c0-.5.2-.7.7-.7h5.8c.5 0 .7.2.7.7v33.2c0 .5-.2.7-.7.7h-5.8zM126.7 44.6c-.2 0-.3 0-.5-.2s-.3-.3-.3-.5l-6-16.6v16.6c0 .2 0 .3-.2.5s-.3.2-.5.2h-5.8c-.2 0-.3 0-.5-.2s-.2-.3-.2-.5V10.7c0-.5.2-.7.7-.7h7.2c.3 0 .5.2.7.7l6.5 19 .2.5V10.7c0-.2 0-.3.2-.5.3-.2.3-.2.5-.2h5.8c.7 0 .9.2.9.7v33.2c0 .2 0 .3-.2.5s-.3.2-.5.2h-8zM158.5 44.1c-.3.3-.5.5-.9.5h-13.3c-.5 0-.9-.2-1.4-.5l-2.6-2.7c-.3-.3-.5-.5-.5-.7V14.6c0-.3 0-.5.2-.7s.2-.3.3-.7l2.7-2.7c.2-.2.3-.3.5-.3.2-.2.5-.2.9-.2h13.3c.2 0 .3.2.7.5l2.7 2.7c.3.3.3.5.5.7v5.8c0 .2 0 .3-.2.5s-.3.2-.5.2h-5.8c-.2 0-.3 0-.5-.2s-.2-.3-.2-.5v-1.1c0-.2 0-.2-.2-.3l-.9-.9c0-.2-.2-.2-.3-.2h-4.8c-.2 0-.2 0-.3.2l-.9.9c0 .2-.2.3-.2.5v17.4c0 .2 0 .3.2.3l.7.7h5.8l.7-.7c.2-.2.2-.2.2-.3v-4.3h-3.3c-.2 0-.3 0-.5-.2s-.2-.3-.2-.5v-6c0-.5.2-.7.7-.7h9.8c.2 0 .3 0 .5.2s.2.3.2.5v14.9c0 .2 0 .3-.2.5s-.2.3-.3.5l-2.6 3z"/><path class="st1" d="M184.3 44.1c-.2.2-.5.3-.5.3h-13.2c-.3 0-.5 0-.7-.2s-.3-.2-.5-.3l-2.7-2.7c-.3-.3-.3-.5-.5-.7v-5.6c0-.2 0-.3.2-.5s.3-.2.5-.2h5.8c.5 0 .7.2.7.7v2.4h6.2l.7-.7c.2 0 .2-.2.2-.3v-4.1s0-.2-.2-.2l-.9-.7c-.2-.2-.2-.2-.3-.2H174v-7.4h5.6l.7-.7c.2-.2.2-.2.2-.3v-4.1c0-.2 0-.3-.2-.3l-.9-.9c-.2-.2-.2-.2-.3-.2h-5.8v2.6c0 .5-.2.7-.7.7h-5.8c-.2 0-.3 0-.5-.2s-.2-.3-.2-.5v-5.2-.5c0-.2.2-.5.5-.9l2.7-2.7c.3-.3.7-.5 1.4-.5h13.1c.2 0 .5.2.7.3l2.7 2.7c.3.3.3.5.5.7v10.9c0 .2-.2.5-.5.7l-1.9 2.1 1.9 2.1c.2.2.3.3.3.5.2.2.2.3.2.5v9.9c0 .2-.2.5-.5.7l-2.9 3zM210.3 44.1c-.3.3-.7.5-1.2.5h-12.8c-.2 0-.3 0-.5-.2s-.3-.2-.3-.3l-2.7-2.7c-.3-.3-.5-.9-.5-1.4V14.6c0-.5.2-1 .5-1.4l2.7-2.7c.2-.2.3-.3.5-.3s.5-.2.7-.2h12.4c.3 0 .5 0 .7.2.2 0 .3.2.5.3l2.7 2.7c.3.3.3.5.5.9v5.6c0 .5-.2.7-.7.7h-5.7c-.5 0-.7-.2-.7-.7v-2.5h-5.6c-.2 0-.3 0-.5.2l-.9.7c-.2.2-.2.3-.2.5v3.9c0 .2 0 .2.2.3l.7.7h9.4s.3.2.7.5l2.7 2.7c.3.3.3.5.5.9v12.8c0 .2-.2.5-.5.7l-2.6 3zm-4.1-7.6c.2-.2.2-.2.2-.3v-4.1c0-.2 0-.2-.2-.3l-1-1h-4.6c-.2 0-.2 0-.3.2l-.9.9c-.2.2-.2.2-.2.3v3.9c0 .2 0 .2.2.3l.7.5h5.5l.6-.4zM236.9 44.1c-.3.3-.7.5-1.4.5H222.1c-.2 0-.5-.2-.7-.3l-2.7-2.7c-.2-.2-.3-.5-.3-.7v-6c0-.5.2-.7.7-.7h5.8c.5 0 .7.2.7.7v2.4h6.2s.2 0 .3-.2l.9-.9c.2 0 .2-.2.2-.3v-4.8c0-.2 0-.3-.2-.5l-.7-.7h-9.2c-.5 0-1-.2-1.4-.5l-2.7-2.7c-.2-.2-.3-.5-.3-.7V10.7c0-.2 0-.3.2-.5s.3-.2.5-.2h20.5c.2 0 .3 0 .5.2s.2.3.2.5v5.8c0 .2 0 .3-.2.5s-.3.2-.5.2h-14v3.9c0 .2 0 .3.2.5l.7.7c.2.2.3.2.5.2h8.7c.5 0 .9.2 1.4.5l2.7 2.7c.3.3.3.5.5.7v13.5c0 .5-.2.9-.5 1.4l-3.2 2.8z"/><path class="st0" d="M277.2 44.5c-.4 0-.6-.2-.7-.7L273 31.3l-.3-2.5-.3 2.5-3.9 12.5c-.2.5-.4.7-.7.7h-6.2c-.2 0-.3-.1-.4-.2-.1-.2-.2-.3-.2-.5l-2.6-33.3c0-.2 0-.3.2-.5s.3-.2.5-.2h5.9c.2 0 .4.1.5.2s.2.3.2.5l1.2 17 2.8-7.9c.1-.2.2-.3.3-.5.2-.2.3-.2.5-.2h4c.5 0 .8.2.9.7l2.8 7.9 1.2-17c0-.2.1-.3.2-.5.1-.1.3-.2.5-.2h5.9c.2 0 .3.1.5.2s.2.3.2.5l-2.6 33.3c0 .2-.1.3-.2.5-.1.1-.3.2-.6.2h-6.1zM309.3 43.9c-.4.4-.7.5-1.1.5h-13c-.3 0-.5 0-.7-.1s-.4-.2-.6-.4l-2.8-2.8c-.4-.4-.5-.8-.5-1.3V14.4c0-.2 0-.4.1-.7.1-.2.2-.5.4-.6l2.8-2.8c.2-.2.5-.4.7-.4.2-.1.4-.1.6-.1H308c.3 0 .5 0 .6.1.1 0 .4.2.7.5l2.8 2.8c.1.1.2.3.3.5.1.2.1.5.1.8V40c0 .2 0 .4-.1.6s-.2.5-.4.7l-2.7 2.6zm-4.2-7.4c.1-.1.1-.2.1-.3V18.4c0-.2 0-.3-.1-.4l-.8-.8c-.1-.1-.2-.1-.3-.1h-4.8c-.1 0-.2 0-.3.1l-.8.8c-.1.1-.1.2-.1.4v17.7c0 .1 0 .2.1.3l.7.7h5.8l.5-.6zM332.4 44.5c-.2 0-.4-.1-.5-.2-.2-.1-.3-.3-.3-.5l-4.9-12.2h-2.3v12.1c0 .2-.1.3-.2.5-.1.1-.3.2-.5.2h-5.9c-.2 0-.3-.1-.5-.2-.1-.1-.2-.3-.2-.5V10.4c0-.2.1-.4.2-.5s.3-.2.5-.2h15.8c.5 0 1 .2 1.3.5l2.8 2.8c.3.3.5.6.5.8v13.1c0 .3 0 .6-.1.7-.1.2-.2.3-.4.5l-3 2.9 5.1 12.5c.1.2.1.3 0 .5-.1.1-.2.2-.5.2h-6.9v.3zm-1.7-21.1c.1-.1.1-.2.1-.4v-4.5c0-.2 0-.4-.1-.5l-.7-.7c-.1-.1-.2-.2-.3-.2h-5.3v7.3h5.2c.1 0 .2 0 .3-.1l.8-.9zM360.3 44.5c-.2 0-.4-.1-.5-.2-.2-.1-.3-.3-.3-.5L353.4 30l-2.6 3.6v10.2c0 .5-.2.7-.7.7h-6c-.5 0-.7-.2-.7-.7V10.4c0-.2.1-.3.2-.5.1-.1.3-.2.5-.2h5.9c.2 0 .4.1.5.2.1.1.2.3.2.5v10.8l7.4-10.8c.1-.2.3-.3.4-.5.1-.1.3-.2.5-.2h7.5c.3 0 .5.1.7.3s.2.4 0 .6L358 23.3l9.6 20.1c.1.3.1.5-.1.6-.2.2-.4.2-.6.2h-6.6v.3zM389 43.9c-.4.4-.7.5-1.1.5h-13c-.3 0-.5 0-.7-.1s-.4-.2-.6-.4l-2.8-2.8c-.4-.4-.5-.8-.5-1.3V14.4c0-.2 0-.4.1-.7.1-.2.2-.5.4-.6l2.8-2.8c.2-.2.5-.4.7-.4.2-.1.4-.1.6-.1h12.8c.3 0 .5 0 .6.1.1 0 .4.2.7.5l2.8 2.8c.1.1.2.3.3.5.1.2.1.5.1.8V40c0 .2 0 .4-.1.6s-.2.5-.4.7l-2.7 2.6zm-4.1-7.4c.1-.1.1-.2.1-.3V18.4c0-.2 0-.3-.1-.4l-.8-.8c-.1-.1-.2-.1-.3-.1H379c-.1 0-.2 0-.3.1l-.8.8c-.1.1-.1.2-.1.4v17.7c0 .1 0 .2.1.3l.7.7h5.8l.5-.6zM415.5 43.9c-.2.2-.4.3-.6.4-.2.1-.4.1-.7.1h-12.9c-.3 0-.5 0-.7-.1s-.4-.2-.6-.4l-2.8-2.8c-.3-.3-.4-.5-.5-.7 0-.2-.1-.4-.1-.6V10.4c0-.2.1-.4.2-.5s.3-.2.5-.2h5.9c.5 0 .7.2.7.7v25.9l.1.1.7.7h5.8l.7-.7c.1-.1.2-.3.2-.4V10.4c0-.5.2-.7.7-.7h5.9c.5 0 .7.2.7.7v29.4c0 .5-.2 1-.5 1.3l-2.7 2.8zM430.2 44.5c-.2 0-.3-.1-.5-.2-.1-.1-.2-.3-.2-.4V17.1h-6.3c-.2 0-.4-.1-.5-.2s-.2-.3-.2-.5v-5.9c0-.2.1-.4.2-.5s.3-.2.5-.2h19.9c.2 0 .4.1.5.2.1.1.2.3.2.5v5.9c0 .2-.1.4-.2.5s-.3.2-.5.2h-6.3v26.8c0 .2-.1.3-.2.4-.1.1-.3.2-.5.2h-5.9zM466.1 43.9c-.2.2-.4.3-.6.4-.3.1-.5.1-.6.1H452c-.5 0-.9-.2-1.3-.5l-2.8-2.8c-.2-.2-.3-.4-.4-.6-.1-.3-.1-.5-.1-.7V35c0-.2.1-.4.2-.5s.3-.2.5-.2h5.9c.5 0 .7.2.7.7v2.2h6.3c.1 0 .1 0 .2-.1l.8-.8c.1-.1.1-.2.1-.3v-3.8c0-.2-.1-.4-.2-.5l-.7-.7c-.1-.1-.2-.1-.2-.1h-9c-.5 0-.9-.2-1.3-.5l-2.8-2.8c-.2-.2-.3-.3-.4-.5s-.1-.4-.1-.7v-12c0-.5.2-.9.5-1.3l2.8-2.8c.3-.3.5-.4.7-.5.2 0 .4-.1.6-.1h12.9c.3 0 .5 0 .7.1s.4.2.6.4L469 13c.4.4.5.8.5 1.3v5.3c0 .2-.1.4-.2.5s-.3.2-.5.2h-5.9c-.5 0-.7-.2-.7-.7v-2.5H456c-.1 0-.2 0-.3.1l-.8.8c-.1.1-.2.3-.2.4v4c0 .1.1.2.2.3l.7.7h9.3c.4 0 .6 0 .7.1s.3.2.5.4l2.8 2.8c.3.3.4.5.5.7 0 .2.1.4.1.6v11.8c0 .2 0 .4-.1.6s-.2.5-.4.7l-2.9 2.8zM.1 54.4h469.5v-5H.1v5zM.1 0v5h469.5V0H.1z"/></svg>