<svg xmlns="http://www.w3.org/2000/svg" viewBox="0 0 36 36"><path d="M21.2 10.5c-.1 0-.6-.3-.7-.3l.3-.3c.2-.3.3-.6.4-1 .2.1.5.1.8.1-.3-.3-.6-.7-.8-1.1h.6c-.5-.3-.8-.8-1.1-1.3-.1-.2-.3-.4-.5-.6-.4-.1-.8-.1-1.2.1-.3-.2-.7-.2-1 0-.3.2-.5.4-.7.7-.1.2-.3.4-.5.7-.2.2-.5.4-.8.5.2.2.4.3.6.3-.1.2-.3.4-.5.6.1 0 .3.1.5.1 0 .3.1.7.3.9-.3.1-.6.3-.8.5-.1-.1-.2-.1-.3-.2-.3-.2-.5-.4-.8-.6 0-.3-.1-.5-.2-.7-.1-.2-.3-.4-.5-.6-.3-.2-.7-.2-1.1-.2.2-.6.3-1.1.2-1.7 0-.3.3-.4.5-.5v.8c0 .1 0 .1.1.2s.2.1.3.1c-.1.1 0 .2 0 .2.1.1.1.1.2.1h.3c.3 0 .7-.1 1-.2.1 0 .2-.1.2-.2.1-.1.1-.2.1-.3-.1-.1-.1-.4-.2-.7-.2-.3-.3-.5-.5-.7-.2-.2-.2-.3-.4-.4-.1-.1-.2-.2-.3-.2h-.4c-.7.2-1.4.5-2.1.9-.6.4-1.2.9-1.6 1.5-.4.6-.6 1.3-.5 2.1 0 .4.4.6.8.7.1.5.2.9.4 1.3s.6.8 1 1c.3.1.3.5.4.7.3.4.7.7 1.1.9-.1 1.1.3 2.2 1.1 3 .1 1.1.1 2.3.1 3.5-1 .2-2 .6-2.9 1.2-.9.6-1.6 1.5-1.8 2.5-.5.1-.8.4-1.1.8-.1.3-.3.6-.4.9-.4.3-.8.7-1.1 1.1-.3.5-.4 1-.7 1.5-.1.3-.3.7-.6 1-2.5-2-3.4-.4-3.4-.4l3.8 2.5c.2-.2.3-.5.3-.9.4-.5.9-.9 1.4-1.3.5 0 1-.2 1.5-.5.4-.4.7-.8.9-1.3.2-.4.5-1 1-1.1 1.4-.2 2.7-.7 3.9-1.3h.3c.7-.4 1.5-.5 2.3-.4 1.4.3 2.4 1.5 3.8 1.9.3.1.7.1 1 .2l1.1.1c.3 0 .6.5.7.8s.1.5.1.7c.1.4.4.7.7.9.3.2.7.3 1.1.4.3.1.7.1 1 .1.3.3.7.5.7.9-.1.3 0 .7.2 1 0 0 3.3-2.2 3.8-2.3 0 0-.6-1.3-3.1.3-.5-.6-1-1.3-1.4-2-.2-.5-.5-.9-.9-1.3l-.3-.2c-.1-.4-.1-.7-.4-.9-.3-.2-.6-.3-1-.3-.5-1-1-1.9-1.7-2.7-.7-.9-1.5-1.5-2.5-2 .3-1.1.4-2.2.3-3.2.5-.5.8-1.1.9-1.8l.3.3c.2.1.4.2.5.2.2 0 .5 0 .6.1s.1.3.1.5c.1.2.2.4.4.5.3.2.6.3 1 .3 0 .3.1.5.1.8-.2 0-.3-.1-.5-.1-.1 0-.3.1-.3.2v.1c-.1 0-.2.1-.2.2-.1.1-.1.3 0 .4.1.1.1.3.1.4.3.3.5.7.8 1 .1 0 .2-.1.3-.1.2-.2.4-.5.5-.6.6-.6 1-1.4 1-2.2 0-1.2-.5-2.4-1.4-3.4-.1-.6-.4-1.1-.8-1.4-.5-.3-1-.5-1.6-.5-.1-.5-.4-.8-.9-1-.4-.2-.9-.3-1.3-.3" fill="#ff3b30"/></svg>